
********************************************************************************************************************                                
             Trailer Park Boys 2 Countdown to Liquor Day CAM XVID - IMAGiNE
********************************************************************************************************************

Ripper ...........: IMAGiNE                                        IMDB Rating.......:5.8/10                             
Video Codec.......: XVID                                         Release Date......:05/10/09
Audio Codec.......:MP3                                           Theatre Date......:25/09/09
Audio Bitrate.....:128                                              Runtime.......:1h 36mn
Subtitles.........:NIL                                                 Language..........:ENGLISH
Resolution...... 640 x 362                                      IMDb URL..........:http://www.imdb.com/title/tt1337032/


[color=yellow]DETAILS:[/color]

Video
ID                               : 0
Format                           : MPEG-4 Visual
Format profile                   : Advanced Simple@L5
Format settings, BVOP            : Yes
Format settings, QPel            : No
Format settings, GMC             : No warppoints
Format settings, Matrix          : Default (MPEG)
Muxing mode                      : Packed bitstream
Codec ID                         : XVID
Codec ID/Hint                    : XviD
Duration                         : 1h 36mn
Bit rate                         : 578 Kbps
Width                            : 640 pixels
Height                           : 362 pixels
Display aspect ratio             : 16/9
Frame rate                       : 29.970 fps
Resolution                       : 24 bits
Colorimetry                      : 4:2:0
Scan type                        : Progressive
Bits/(Pixel*Frame)               : 0.083
Stream size                      : 399 MiB (81%)
Writing library                  : XviD 1.2.1 (UTC 2008-12-04)

Audio
ID                               : 1
Format                           : MPEG Audio
Format version                   : Version 1
Format profile                   : Layer 3
Codec ID                         : 55
Codec ID/Hint                    : MP3
Duration                         : 1h 36mn
Bit rate mode                    : Constant
Bit rate                         : 128 Kbps
Channel(s)                       : 2 channels
Sampling rate                    : 48.0 KHz
Resolution                       : 16 bits
Video delay                      : 23ms
Stream size                      : 88.3 MiB (18%)
Alignment                        : Split accross interleaves
Interleave, duration             : 33 ms (1.00 video frame)
Interleave, preload duration     : 500 ms



[color=yellow]NOTES:[/color]

IMAGiNE bringing you another release.....
This time it's a re-encode of the online video source of the trailor boys....
The source was crap to be honest....was watermarked in red across the top and had the sites name at the 
begining....there was also some camera movement and bitrate and res were low...
Work done.....done some cropping through the film also cut the intro off and blurred the watermark...
Also changed the colours slight along with the contrast,gama,sharpnes etc.....
But be warned the source isn't the best,but it's the only source todate so ...

[color=yellow]SCREENS:[/color]

[IMG]http://lookpic.com/i/86/lMg7eYB8.jpeg[/IMG]

[color=yellow]GREETS:[/color]

FLAWL3SS,ViSiON,DEViSE,FUSiON,STG,SecretMyth,Lynks
And to all the other p2p grps past and present 

Special thanks to Python-Lair for the server :)


[COLOR=RED]Have anything to offer????......Contact us imaginegroup@hushmail.com[/COLOR]





                              
     
